<svg id="eSKwDdQkmes1" xmlns="http://www.w3.org/2000/svg" xmlns:xlink="http://www.w3.org/1999/xlink" viewBox="0 0 72 72" shape-rendering="geometricPrecision" text-rendering="geometricPrecision"><g transform="matrix(1.009432 0 0 1-.000005 0)"><rect width="72" height="72" rx="0" ry="0" fill="#fff"/><g style="mix-blend-mode:color-dodge" opacity="0" paint-order="stroke fill markers"><rect width="72" height="72" rx="0" ry="0" stroke-width="0"/></g></g><g><ellipse rx="36" ry="36" transform="translate(36 36)" fill="#e3b873" stroke="#000" stroke-width="0"/><g transform="matrix(1.012546 0 0 1.017482-.451656-.629352)"><g transform="matrix(.987607 0 0 0.982818-25.7353-24.8905)"><circle r="36" transform="translate(62.5099 61.955)" fill="#e3b873"/></g><path d="M36.33539,43.15315c-.37351,0-.67849.29416-.67849.65957v1.30184c0,.36541.30497.65947.67849.65947s.67839-.29406.67839-.65947v-1.30184c0-.36541-.30487-.65957-.67839-.65957Z" fill="#fff" stroke="#fff" stroke-width="0.1"/><path d="M52.8467,34.03476v-.0001c-.44561-2.12072-1.44487-4.11987-2.88974-5.78143-1.39095-1.59963-3.17091-2.85892-5.15561-3.65264-.32492-1.31304-1.00647-2.66707-2.34379-3.68665-1.30177-.99235-2.61272-1.18371-2.67128-1.19186v0c-.19397-.02683-.39119.02919-.53983.1543s-.23446.30693-.23446.49858v3.24684h-2.19683c-.5821-1.88121-2.38132-3.25519-4.50546-3.25519-2.17096,0-4.00356,1.43482-4.54319,3.37991-3.10899.41848-5.9686,1.88357-8.09245,4.15732l.03625.03342-.03625-.03342c-2.24108,2.39955-3.47559,5.50604-3.47559,8.74718c0,7.26263,3.88515,13.16966,5.07541,14.80655.37667.51804.99294.82684,1.64842.82684h2.6774c1.11293,0,2.02045-.87874,2.02045-1.96161v-.78783c.6616.09602,1.33317.14526,2.00553.14526h6.03142v.64257c0,1.08287.90751,1.96161,2.02045,1.96161h2.941c.94563,0,1.7768-.65102,1.97541-1.5503l.31623-1.43147c4.12435-.98439,7.44211-3.79181,9.085-7.43472h2.45697c.74288,0,1.34937-.58664,1.34937-1.31049v-5.20844c0-.35047-.14073-.67991-.39573-.92729-.2549-.24728-.59355-.3833-.95353-.3833h-.0001v0v0h-.0001v0v0h-.0001l-1.60417.0002c-.00049-.00128-.00079-.00256-.00109-.00383Zm1.59805,6.47333h-.0001v.04079h-1.94065c.33164-1.02567.53597-2.10274.59523-3.21264.01965-.36492-.26932-.67402-.64244-.69279-.37292-.01838-.6931.25946-.71256.62438-.26389,4.9363-3.70916,9.15613-8.51317,10.58141l.861-3.89815c.07901-.35735-.15584-.70733-.52146-.78331-.36492-.07617-.72639.14949-.8052.50645l-1.4981,6.78292c-.06479.29347-.33727.50822-.64876.50822h-2.94119c-.36699,0-.66347-.28954-.66347-.64257v-2.60427c0-.36541-.30497-.65947-.67849-.65947s-.67839.29406-.67839.65947v.64266h-6.03152c-.67335,0-1.34552-.05504-2.00553-.16197v-4.38681c0-.36541-.30487-.65947-.67839-.65947s-.67849.29406-.67849.65947v6.51038c0,.35313-.29648.64266-.66347.64266h-2.6773c-.21994,0-.41638-.09838-.54032-.2691v0c-1.13279-1.55806-4.82663-7.17369-4.82663-14.04545c0-2.91248,1.10908-5.70398,3.12331-7.86048l-.03615-.03342.03615.03342c1.83073-1.96013,4.26923-3.25175,6.93034-3.68626.01481.38133.07871.75824.18893,1.12169h-.18528c-.37351,0-.67839.29406-.67839.65947s.30487.65957.67839.65957h9.39382c.37361,0,.67849-.29416.67849-.65957s-.30487-.65947-.67849-.65947h-.18528c.12612-.41524.19189-.84817.19268-1.28523h1.99813v1.29368c0,.36541.30487.65947.67839.65947s.67849-.29406.67849-.65947v-4.98692c.58723.22526,1.40171.66606,2.07901,1.50686.70278.87225,1.26098,2.17881,1.26098,4.13118c0,.36541.30497.65947.67849.65947s.67839-.29406.67839-.65947c0-.23381-.0078-.47932-.02558-.73279c1.48052.71244,2.80895,1.71983,3.88061,2.95219c1.29851,1.49339,2.19634,3.28939,2.59652,5.1939.12898.61416.68431,1.05899,1.32013,1.05889l1.60733-.0001v5.15056ZM32.30961,21.68565c1.84692,0,3.3474,1.45772,3.3474,3.24674c0,.44699-.09629.88758-.27821,1.29359h-6.13847c-.18182-.4061-.27831-.8466-.27831-1.29359c0-1.78912,1.50057-3.24674,3.34759-3.24674Z" fill="#fff" stroke="#fff" stroke-width="0.1"/><path d="M43.81355,34.4672v0c.3984-1.03658,1.45099-1.73074,2.61765-1.73074s2.21935.69416,2.61755,1.73074c0,0,0,0,0,.0001l-.04612.01749c.12138.31578-.04415.66733-.36966.78508l-4.81942-.80267Zm0,0c-.13155.34241.04829.72208.39889.84886m-.39889-.84886l.39889.84886m0,0c.35011.12678.7409-.0456.87216-.38733l-.87216.38733Zm4.20089.04157c.07871,0,.15861-.01337.23653-.04157l-3.56526-.38733c.19999-.5204.74001-.87333,1.3465-.87333s1.14661.35293,1.3466.87333c.10212.26585.36127.4289.63562.4289Z" fill="#fff" stroke="#fff" stroke-width="0.1"/><path d="M35.22137,37.05722c-.64343-.43421-1.47302-.70026-2.23338-.90891v-3.0261c.58753.07587,1.08459.24521,1.43647.45426.3665.21789.56155.46979.56155.69436c0,.36541.30497.65947.67849.65947s.67839-.29406.67839-.65947c0-.64434-.36937-1.22037-.97605-1.65595-.5974-.4289-1.42828-.72483-2.37885-.82095v-.02555c0-.36541-.30497-.65957-.67849-.65957s-.67839.29416-.67839.65957v.02555c-.95057.09612-1.78154.39205-2.37885.82095-.60669.43558-.97615,1.01161-.97615,1.65595c0,.91156.46576,1.53162,1.12163,1.97428.64333.43421,1.47302.70026,2.23338.90891v3.026c-.58753-.07578-1.08459-.24511-1.43647-.45426-.3666-.21779-.56155-.46969-.56155-.69426c0-.36541-.30497-.65947-.67849-.65947s-.67849.29406-.67849.65947c0,.64434.36946,1.22037.97615,1.65595.5973.4289,1.42828.72473,2.37885.82095v.02555c0,.36541.30487.65947.67839.65947s.67849-.29406.67849-.65947v-.02555c.95057-.09622,1.78145-.39205,2.37885-.82095.60669-.43558.97605-1.01161.97605-1.65595c0-.91166-.46566-1.53172-1.12153-1.97428Zm-3.59025-3.93501v2.64987c-.73843-.22831-1.23599-.44571-1.55015-.68296-.31998-.24148-.44788-.50173-.44788-.81829c0-.22457.19495-.47647.56155-.69436.35188-.20905.84895-.37838,1.43647-.45426Zm2.79335,6.60365c-.35188.20914-.84905.37848-1.43647.45426v-2.64987c.73843.22831,1.23589.44571,1.55015.68296.31989.24148.44788.50183.44788.81839c0,.22448-.19505.47637-.56155.69426Z" fill="#fff" stroke="#fff" stroke-width="0.1"/></g></g></svg>
